<?xml version="1.0" encoding="UTF-8" standalone="no"?>
<svg
   xmlns:dc="http://purl.org/dc/elements/1.1/"
   xmlns:cc="http://creativecommons.org/ns#"
   xmlns:rdf="http://www.w3.org/1999/02/22-rdf-syntax-ns#"
   xmlns:svg="http://www.w3.org/2000/svg"
   xmlns="http://www.w3.org/2000/svg"
   xmlns:sodipodi="http://sodipodi.sourceforge.net/DTD/sodipodi-0.dtd"
   xmlns:inkscape="http://www.inkscape.org/namespaces/inkscape"
   width="50mm"
   height="50mm"
   viewBox="0 0 50 50"
   version="1.1"
   id="svg1589"
   inkscape:version="1.0.2 (1.0.2+r75+1)"
   sodipodi:docname="dibujo-1.svg">
  <defs
     id="defs1583" />
  <sodipodi:namedview
     id="base"
     pagecolor="#ffffff"
     bordercolor="#666666"
     borderopacity="1.0"
     inkscape:pageopacity="0.0"
     inkscape:pageshadow="2"
     inkscape:zoom="3.959798"
     inkscape:cx="10.428785"
     inkscape:cy="77.61253"
     inkscape:document-units="mm"
     inkscape:current-layer="g2984"
     inkscape:document-rotation="0"
     showgrid="false"
     inkscape:snap-text-baseline="false"
     inkscape:window-width="2560"
     inkscape:window-height="1385"
     inkscape:window-x="1920"
     inkscape:window-y="27"
     inkscape:window-maximized="1" />
  <metadata
     id="metadata1586">
    <rdf:RDF>
      <cc:Work
         rdf:about="">
        <dc:format>image/svg+xml</dc:format>
        <dc:type
           rdf:resource="http://purl.org/dc/dcmitype/StillImage" />
        <dc:title></dc:title>
      </cc:Work>
    </rdf:RDF>
  </metadata>
  <g
     inkscape:label="Capa 1"
     inkscape:groupmode="layer"
     id="layer1">
    <g
       id="g2832"
       transform="matrix(0.26458333,0,0,0.26458333,0.52584755,0.06529255)">
	<g
   id="g2772">
		<path
   fill="#4e4e4e"
   d="m 115.912,17.967 c 0,2.676 -0.731,4.738 -2.193,6.186 -1.462,1.448 -3.518,2.171 -6.166,2.171 h -5.148 V 10.29 h 5.507 c 2.554,0 4.526,0.658 5.916,1.974 1.389,1.316 2.084,3.217 2.084,5.703 z m -4.462,0.154 c 0,-1.469 -0.289,-2.559 -0.866,-3.268 -0.577,-0.709 -1.453,-1.064 -2.628,-1.064 h -1.251 v 8.982 h 0.958 c 1.306,0 2.264,-0.382 2.874,-1.146 0.61,-0.764 0.913,-1.932 0.913,-3.504 z"
   id="path2758" />

		<path
   fill="#4e4e4e"
   d="m 123.129,26.544 c -2.053,0 -3.646,-0.55 -4.783,-1.65 -1.136,-1.101 -1.704,-2.667 -1.704,-4.7 0,-2.099 0.526,-3.709 1.578,-4.832 1.053,-1.122 2.555,-1.684 4.506,-1.684 1.857,0 3.293,0.488 4.305,1.464 1.012,0.976 1.52,2.382 1.52,4.217 v 1.908 h -7.609 c 0.029,0.695 0.281,1.239 0.758,1.634 0.475,0.395 1.121,0.592 1.941,0.592 0.748,0 1.436,-0.071 2.063,-0.214 0.629,-0.143 1.309,-0.386 2.041,-0.729 v 3.082 c -0.668,0.344 -1.357,0.581 -2.068,0.713 -0.712,0.133 -1.56,0.199 -2.548,0.199 z m -0.25,-9.948 c -0.5,0 -0.92,0.159 -1.256,0.477 -0.338,0.318 -0.537,0.817 -0.594,1.497 h 3.656 c -0.014,-0.599 -0.184,-1.078 -0.506,-1.437 -0.322,-0.359 -0.755,-0.537 -1.3,-0.537 z"
   id="path2760" />

		<path
   fill="#4e4e4e"
   d="m 132.851,26.325 -4.702,-12.426 h 4.44 l 2.09,7.348 c 0.008,0.037 0.022,0.099 0.044,0.187 0.022,0.088 0.043,0.192 0.065,0.313 0.021,0.121 0.041,0.249 0.06,0.384 0.018,0.136 0.027,0.262 0.027,0.378 h 0.076 c 0,-0.38 0.065,-0.793 0.195,-1.239 l 2.188,-7.37 h 4.43 l -4.702,12.426 h -4.211 z"
   id="path2762" />

		<path
   fill="#4e4e4e"
   d="m 146.381,26.325 h -4.234 V 10.29 h 9.404 v 3.477 h -5.17 v 3.06 h 4.767 v 3.477 h -4.767 z"
   id="path2764" />

		<path
   fill="#4e4e4e"
   d="m 158.528,26.544 c -2.054,0 -3.647,-0.55 -4.783,-1.65 -1.136,-1.1 -1.703,-2.667 -1.703,-4.7 0,-2.099 0.525,-3.709 1.578,-4.832 1.052,-1.122 2.554,-1.684 4.506,-1.684 1.857,0 3.292,0.488 4.305,1.464 1.012,0.976 1.519,2.382 1.519,4.217 v 1.908 h -7.608 c 0.029,0.695 0.281,1.239 0.757,1.634 0.475,0.395 1.122,0.592 1.942,0.592 0.747,0 1.435,-0.071 2.063,-0.214 0.628,-0.143 1.308,-0.386 2.041,-0.729 v 3.082 c -0.668,0.344 -1.357,0.581 -2.068,0.713 -0.713,0.133 -1.561,0.199 -2.549,0.199 z m -0.25,-9.948 c -0.501,0 -0.92,0.159 -1.257,0.477 -0.338,0.318 -0.536,0.817 -0.594,1.497 h 3.657 c -0.015,-0.599 -0.184,-1.078 -0.506,-1.437 -0.322,-0.358 -0.756,-0.537 -1.3,-0.537 z"
   id="path2766" />

		<path
   fill="#4e4e4e"
   d="m 174.541,22.508 c 0,1.331 -0.45,2.336 -1.35,3.016 -0.9,0.68 -2.191,1.02 -3.875,1.02 -0.914,0 -1.709,-0.049 -2.384,-0.148 -0.675,-0.099 -1.364,-0.28 -2.067,-0.543 V 22.42 c 0.66,0.292 1.384,0.534 2.171,0.724 0.787,0.19 1.489,0.285 2.106,0.285 0.921,0 1.382,-0.212 1.382,-0.636 0,-0.219 -0.129,-0.415 -0.386,-0.586 -0.258,-0.172 -1.007,-0.506 -2.248,-1.004 -1.132,-0.468 -1.923,-1 -2.373,-1.596 -0.449,-0.596 -0.675,-1.351 -0.675,-2.265 0,-1.155 0.442,-2.055 1.328,-2.698 0.885,-0.644 2.137,-0.965 3.755,-0.965 0.813,0 1.576,0.09 2.291,0.269 0.715,0.179 1.457,0.44 2.227,0.784 l -1.154,2.764 c -0.565,-0.256 -1.164,-0.473 -1.796,-0.652 -0.631,-0.179 -1.146,-0.269 -1.546,-0.269 -0.696,0 -1.044,0.172 -1.044,0.516 0,0.212 0.121,0.393 0.364,0.543 0.243,0.15 0.945,0.455 2.106,0.916 0.863,0.358 1.507,0.709 1.932,1.053 0.425,0.344 0.736,0.748 0.936,1.212 0.2,0.463 0.3,1.028 0.3,1.693 z"
   id="path2768" />

		<path
   fill="#4e4e4e"
   d="m 181.605,23.155 c 0.573,0 1.259,-0.143 2.058,-0.428 v 3.126 c -0.573,0.249 -1.119,0.426 -1.639,0.532 -0.519,0.105 -1.126,0.159 -1.822,0.159 -1.43,0 -2.46,-0.353 -3.092,-1.058 -0.631,-0.706 -0.946,-1.79 -0.946,-3.252 v -5.122 h -1.491 v -1.744 l 1.894,-1.349 1.1,-2.61 h 2.786 v 2.49 h 3.025 v 3.213 h -3.025 v 4.837 c -0.001,0.804 0.384,1.206 1.152,1.206 z"
   id="path2770" />

	</g>

	<g
   id="g2794">
		<path
   fill="#4e4e4e"
   d="M 60.282,47.886 H 50.031 v -1.841 l 3.9,-3.92 c 1.151,-1.179 1.915,-2.016 2.291,-2.509 0.376,-0.493 0.65,-0.957 0.822,-1.391 0.172,-0.434 0.259,-0.9 0.259,-1.396 0,-0.683 -0.205,-1.221 -0.616,-1.614 -0.41,-0.393 -0.978,-0.59 -1.702,-0.59 -0.579,0 -1.14,0.107 -1.681,0.321 -0.542,0.214 -1.167,0.6 -1.877,1.159 L 50.114,34.5 c 0.841,-0.71 1.659,-1.214 2.452,-1.51 0.793,-0.296 1.638,-0.445 2.535,-0.445 1.407,0 2.534,0.367 3.382,1.102 0.848,0.735 1.272,1.723 1.272,2.964 0,0.683 -0.123,1.331 -0.367,1.945 -0.245,0.614 -0.621,1.247 -1.127,1.898 -0.507,0.652 -1.35,1.533 -2.529,2.643 l -2.627,2.545 v 0.104 h 7.179 v 2.14 z"
   id="path2774" />

		<path
   fill="#4e4e4e"
   d="m 71.104,40.324 c 0,2.628 -0.422,4.58 -1.267,5.855 -0.845,1.276 -2.136,1.914 -3.874,1.914 -1.683,0 -2.958,-0.659 -3.827,-1.976 -0.869,-1.317 -1.304,-3.248 -1.304,-5.793 0,-2.668 0.422,-4.636 1.268,-5.901 0.844,-1.265 2.132,-1.898 3.863,-1.898 1.689,0 2.969,0.662 3.838,1.986 0.868,1.323 1.303,3.261 1.303,5.813 z m -7.811,0 c 0,2.063 0.212,3.535 0.636,4.417 0.424,0.883 1.102,1.324 2.033,1.324 0.931,0 1.612,-0.448 2.043,-1.345 0.431,-0.896 0.646,-2.362 0.646,-4.396 0,-2.027 -0.215,-3.495 -0.646,-4.401 -0.431,-0.907 -1.112,-1.36 -2.043,-1.36 -0.931,0 -1.608,0.445 -2.033,1.334 -0.423,0.889 -0.636,2.365 -0.636,4.427 z"
   id="path2776" />

		
		
		<path
   fill="#4e4e4e"
   d="m 107.335,43.779 c 0,1.345 -0.486,2.4 -1.458,3.166 -0.973,0.766 -2.314,1.148 -4.024,1.148 -1.71,0 -3.11,-0.266 -4.2,-0.797 v -2.337 c 0.689,0.324 1.422,0.579 2.198,0.765 0.776,0.187 1.499,0.279 2.167,0.279 0.979,0 1.702,-0.186 2.167,-0.559 0.465,-0.372 0.698,-0.872 0.698,-1.5 0,-0.565 -0.214,-1.044 -0.641,-1.438 -0.428,-0.393 -1.311,-0.859 -2.648,-1.396 -1.379,-0.559 -2.352,-1.197 -2.917,-1.914 -0.565,-0.717 -0.848,-1.579 -0.848,-2.586 0,-1.262 0.448,-2.255 1.345,-2.979 0.897,-0.724 2.1,-1.086 3.61,-1.086 1.448,0 2.89,0.317 4.324,0.952 l -0.786,2.017 c -1.345,-0.565 -2.545,-0.848 -3.6,-0.848 -0.8,0 -1.407,0.174 -1.82,0.522 -0.414,0.348 -0.621,0.809 -0.621,1.381 0,0.393 0.083,0.729 0.248,1.009 0.165,0.28 0.438,0.543 0.817,0.791 0.379,0.249 1.062,0.576 2.048,0.983 1.11,0.462 1.924,0.893 2.441,1.293 0.517,0.4 0.896,0.852 1.138,1.355 0.241,0.503 0.362,1.096 0.362,1.779 z"
   id="path2782" />

		<path
   fill="#4e4e4e"
   d="m 113.729,48.093 c -1.779,0 -3.171,-0.519 -4.174,-1.557 -1.003,-1.038 -1.505,-2.467 -1.505,-4.288 0,-1.869 0.465,-3.338 1.396,-4.407 0.931,-1.069 2.21,-1.604 3.838,-1.604 1.51,0 2.703,0.459 3.579,1.376 0.875,0.917 1.313,2.179 1.313,3.786 v 1.313 h -7.624 c 0.034,1.11 0.334,1.964 0.9,2.561 0.565,0.596 1.362,0.895 2.39,0.895 0.676,0 1.305,-0.063 1.888,-0.191 0.583,-0.127 1.208,-0.339 1.877,-0.636 v 1.976 c -0.593,0.283 -1.193,0.483 -1.8,0.6 -0.607,0.117 -1.298,0.176 -2.078,0.176 z m -0.444,-10.014 c -0.772,0 -1.392,0.245 -1.857,0.734 -0.465,0.49 -0.743,1.204 -0.833,2.142 h 5.193 c -0.014,-0.945 -0.242,-1.66 -0.683,-2.146 -0.441,-0.486 -1.048,-0.73 -1.82,-0.73 z"
   id="path2784" />

		<path
   fill="#4e4e4e"
   d="m 126.826,47.886 -0.486,-1.593 h -0.082 c -0.553,0.697 -1.107,1.171 -1.666,1.422 -0.559,0.252 -1.275,0.378 -2.152,0.378 -1.123,0 -2,-0.304 -2.631,-0.911 -0.633,-0.606 -0.947,-1.465 -0.947,-2.576 0,-1.179 0.438,-2.069 1.314,-2.669 0.875,-0.6 2.209,-0.927 4.002,-0.982 l 1.977,-0.062 v -0.61 c 0,-0.731 -0.172,-1.278 -0.512,-1.64 -0.342,-0.362 -0.871,-0.543 -1.588,-0.543 -0.586,0 -1.148,0.086 -1.688,0.258 -0.537,0.172 -1.055,0.376 -1.551,0.61 l -0.787,-1.738 c 0.621,-0.324 1.301,-0.57 2.039,-0.74 0.738,-0.169 1.434,-0.253 2.09,-0.253 1.455,0 2.553,0.317 3.295,0.952 0.74,0.635 1.111,1.631 1.111,2.99 v 7.707 z m -3.621,-1.656 c 0.883,0 1.592,-0.246 2.127,-0.739 0.533,-0.493 0.801,-1.185 0.801,-2.074 v -0.993 l -1.469,0.062 c -1.145,0.042 -1.977,0.233 -2.498,0.574 -0.521,0.341 -0.781,0.864 -0.781,1.567 0,0.51 0.152,0.905 0.455,1.184 0.305,0.28 0.76,0.419 1.365,0.419 z"
   id="path2786" />

		<path
   fill="#4e4e4e"
   d="m 138.372,44.627 c 0,1.117 -0.407,1.974 -1.221,2.57 -0.813,0.597 -1.979,0.895 -3.496,0.895 -1.524,0 -2.749,-0.231 -3.673,-0.693 v -2.1 c 1.345,0.621 2.597,0.931 3.755,0.931 1.497,0 2.245,-0.452 2.245,-1.355 0,-0.29 -0.083,-0.531 -0.248,-0.724 -0.166,-0.193 -0.438,-0.393 -0.817,-0.6 -0.379,-0.207 -0.907,-0.441 -1.583,-0.703 -1.317,-0.51 -2.208,-1.021 -2.674,-1.531 -0.466,-0.51 -0.698,-1.172 -0.698,-1.986 0,-0.979 0.395,-1.74 1.185,-2.281 0.789,-0.541 1.863,-0.812 3.223,-0.812 1.345,0 2.617,0.272 3.816,0.817 l -0.786,1.831 c -1.234,-0.51 -2.272,-0.766 -3.113,-0.766 -1.283,0 -1.924,0.366 -1.924,1.097 0,0.358 0.167,0.662 0.501,0.91 0.335,0.248 1.064,0.59 2.188,1.024 0.944,0.366 1.631,0.7 2.059,1.003 0.427,0.304 0.744,0.654 0.951,1.05 0.207,0.396 0.31,0.872 0.31,1.423 z"
   id="path2788" />

		<path
   fill="#4e4e4e"
   d="m 149.876,42.145 c 0,1.869 -0.479,3.328 -1.438,4.376 -0.959,1.048 -2.293,1.572 -4.004,1.572 -1.068,0 -2.014,-0.242 -2.834,-0.724 -0.821,-0.483 -1.452,-1.176 -1.894,-2.08 -0.441,-0.903 -0.662,-1.951 -0.662,-3.145 0,-1.855 0.477,-3.303 1.428,-4.345 0.952,-1.041 2.293,-1.562 4.024,-1.562 1.655,0 2.965,0.533 3.931,1.598 0.966,1.065 1.449,2.503 1.449,4.31 z m -8.327,0 c 0,2.642 0.976,3.962 2.928,3.962 1.931,0 2.896,-1.32 2.896,-3.962 0,-2.614 -0.973,-3.92 -2.918,-3.92 -1.021,0 -1.76,0.338 -2.219,1.014 -0.458,0.675 -0.687,1.643 -0.687,2.906 z"
   id="path2790" />

		<path
   fill="#4e4e4e"
   d="m 161.463,47.886 h -2.441 v -7.034 c 0,-0.883 -0.178,-1.542 -0.532,-1.976 -0.355,-0.435 -0.919,-0.652 -1.691,-0.652 -1.027,0 -1.779,0.304 -2.255,0.91 -0.477,0.607 -0.714,1.624 -0.714,3.052 v 5.7 h -2.431 V 36.445 h 1.903 l 0.341,1.5 h 0.124 c 0.345,-0.545 0.835,-0.965 1.469,-1.262 0.635,-0.296 1.338,-0.445 2.11,-0.445 2.745,0 4.117,1.396 4.117,4.189 z"
   id="path2792" />

	<path
   fill="#4e4e4e"
   d="M 60.282,47.886 H 50.031 v -1.841 l 3.9,-3.92 c 1.151,-1.179 1.915,-2.016 2.291,-2.509 0.376,-0.493 0.65,-0.957 0.822,-1.391 0.172,-0.434 0.259,-0.9 0.259,-1.396 0,-0.683 -0.205,-1.221 -0.616,-1.614 -0.41,-0.393 -0.978,-0.59 -1.702,-0.59 -0.579,0 -1.14,0.107 -1.681,0.321 -0.542,0.214 -1.167,0.6 -1.877,1.159 L 50.114,34.5 c 0.841,-0.71 1.659,-1.214 2.452,-1.51 0.793,-0.296 1.638,-0.445 2.535,-0.445 1.407,0 2.534,0.367 3.382,1.102 0.848,0.735 1.272,1.723 1.272,2.964 0,0.683 -0.123,1.331 -0.367,1.945 -0.245,0.614 -0.621,1.247 -1.127,1.898 -0.507,0.652 -1.35,1.533 -2.529,2.643 l -2.627,2.545 v 0.104 h 7.179 v 2.14 z"
   id="path3356" />
<path
   fill="#4e4e4e"
   d="M 82.282,47.886 H 72.031 v -1.841 l 3.9,-3.92 c 1.151,-1.179 1.915,-2.016 2.291,-2.509 0.376,-0.493 0.65,-0.957 0.822,-1.391 0.172,-0.434 0.259,-0.9 0.259,-1.396 0,-0.683 -0.205,-1.221 -0.616,-1.614 -0.41,-0.393 -0.978,-0.59 -1.702,-0.59 -0.579,0 -1.14,0.107 -1.681,0.321 -0.542,0.214 -1.167,0.6 -1.877,1.159 L 72.114,34.5 c 0.841,-0.71 1.659,-1.214 2.452,-1.51 0.793,-0.296 1.638,-0.445 2.535,-0.445 1.407,0 2.534,0.367 3.382,1.102 0.848,0.735 1.272,1.723 1.272,2.964 0,0.683 -0.123,1.331 -0.367,1.945 -0.245,0.614 -0.621,1.247 -1.127,1.898 -0.507,0.652 -1.35,1.533 -2.529,2.643 l -2.627,2.545 v 0.104 h 7.179 v 2.14 z"
   id="path3358" />
</g>

	<g
   id="g2802">
		<path
   fill="#4e4e4e"
   d="m 55.571,17.313 h 6.922 v 8.644 c -1.879,0.644 -3.945,0.965 -6.198,0.965 -2.472,0 -4.382,-0.716 -5.731,-2.15 -1.349,-1.433 -2.024,-3.477 -2.024,-6.132 0,-2.589 0.739,-4.603 2.216,-6.044 1.477,-1.44 3.547,-2.161 6.208,-2.161 1.009,0 1.962,0.095 2.858,0.285 0.896,0.19 1.676,0.432 2.342,0.724 l -1.371,3.4 c -1.156,-0.57 -2.424,-0.855 -3.807,-0.855 -1.265,0 -2.243,0.412 -2.934,1.234 -0.691,0.823 -1.037,1.999 -1.037,3.527 0,1.499 0.313,2.642 0.938,3.428 0.625,0.786 1.526,1.179 2.704,1.179 0.644,0 1.236,-0.062 1.777,-0.187 v -2.512 h -2.863 z"
   id="path2796" />

		<path
   fill="#4e4e4e"
   d="m 78.026,18.344 c 0,2.676 -0.737,4.739 -2.21,6.187 -1.473,1.448 -3.545,2.172 -6.214,2.172 H 64.414 V 10.666 h 5.551 c 2.574,0 4.561,0.658 5.961,1.975 1.4,1.317 2.1,3.217 2.1,5.703 z m -4.497,0.154 c 0,-1.47 -0.291,-2.56 -0.872,-3.269 -0.582,-0.709 -1.464,-1.064 -2.649,-1.064 h -1.262 v 8.983 h 0.965 c 1.316,0 2.282,-0.382 2.896,-1.146 0.614,-0.764 0.922,-1.932 0.922,-3.504 z"
   id="path2798" />

		<path
   fill="#4e4e4e"
   d="m 85.991,17.313 h 6.922 v 8.644 c -1.879,0.644 -3.945,0.965 -6.198,0.965 -2.472,0 -4.382,-0.716 -5.731,-2.15 -1.349,-1.433 -2.024,-3.477 -2.024,-6.132 0,-2.589 0.739,-4.603 2.216,-6.044 1.477,-1.44 3.547,-2.161 6.208,-2.161 1.009,0 1.962,0.095 2.858,0.285 0.896,0.19 1.676,0.432 2.342,0.724 l -1.371,3.4 c -1.156,-0.57 -2.424,-0.855 -3.807,-0.855 -1.265,0 -2.243,0.412 -2.934,1.234 -0.691,0.823 -1.037,1.999 -1.037,3.527 0,1.499 0.313,2.642 0.938,3.428 0.625,0.786 1.526,1.179 2.704,1.179 0.644,0 1.236,-0.062 1.777,-0.187 v -2.512 h -2.863 z"
   id="path2800" />

	</g>

	
		<radialGradient
   id="SVGID_1_"
   cx="-310.58301"
   cy="-60.055"
   r="20.113701"
   gradientTransform="matrix(0.498,0,0,0.498,172.2891,79.7388)"
   gradientUnits="userSpaceOnUse">
		<stop
   offset="0"
   style="stop-color:#FFCF4F"
   id="stop2804" />

		<stop
   offset="1"
   style="stop-color:#F4C236"
   id="stop2806" />

	</radialGradient>

	<path
   fill="url(#SVGID_1_)"
   d="m 8.91,61 h 6.791 c 1.607,0 3.604,-1.128 4.432,-2.511 l 5.72,-9.519 c 0.677,-1.396 0.653,-3.426 -0.119,-4.713 l -3.378,-5.592 z"
   id="path2809"
   style="fill:url(#SVGID_1_)" />

	
		<radialGradient
   id="SVGID_2_"
   cx="-322.6347"
   cy="-70.269501"
   r="27.658199"
   gradientTransform="matrix(0.498,0,0,0.498,172.2891,79.7388)"
   gradientUnits="userSpaceOnUse">
		<stop
   offset="0"
   style="stop-color:#08A960"
   id="stop2811" />

		<stop
   offset="1"
   style="stop-color:#07914B"
   id="stop2813" />

	</radialGradient>

	<path
   fill="url(#SVGID_2_)"
   d="M 16.209,33.514 1.108,58.763 C 0.524,60.011 1.131,61 2.629,61 H 8.91 L 22.356,38.665 16.21,28.492 c 0.829,1.378 0.829,3.638 -0.001,5.022"
   id="path2816"
   style="fill:url(#SVGID_2_)" />

	
		<radialGradient
   id="SVGID_3_"
   cx="-313.18311"
   cy="-109.9511"
   r="40.540001"
   gradientTransform="matrix(0.498,0,0,0.498,172.2891,79.7388)"
   gradientUnits="userSpaceOnUse">
		<stop
   offset="0"
   style="stop-color:#567FC0"
   id="stop2818" />

		<stop
   offset="1"
   style="stop-color:#557FC0"
   id="stop2820" />

	</radialGradient>

	<path
   fill="url(#SVGID_3_)"
   d="M 2.629,1 C 1.015,1 0.375,2.133 1.205,3.511 l 24.529,40.745 c 0.772,1.288 0.795,3.317 0.119,4.713 L 31.816,39.044 8.914,1 Z"
   id="path2823"
   style="fill:url(#SVGID_3_)" />

	
		<radialGradient
   id="SVGID_4_"
   cx="-301.11911"
   cy="-119.9164"
   r="33.058399"
   gradientTransform="matrix(0.498,0,0,0.498,172.2891,79.7388)"
   gradientUnits="userSpaceOnUse">
		<stop
   offset="0"
   style="stop-color:#E14C40"
   id="stop2825" />

		<stop
   offset="1"
   style="stop-color:#CD392D"
   id="stop2827" />

	</radialGradient>

	<path
   fill="url(#SVGID_4_)"
   d="m 8.914,1 22.903,38.045 3.321,-5.53 c 0.83,-1.385 0.83,-3.645 0,-5.023 L 20.133,3.511 C 19.305,2.133 17.308,1 15.701,1 Z"
   id="path2830"
   style="fill:url(#SVGID_4_)" />

</g>
    <g
       id="g2908"
       transform="matrix(0.26458333,0,0,0.26458333,0.52584755,0.06529255)">
	<g
   id="g2848">
		<path
   fill="#4e4e4e"
   d="m 115.912,80.967 c 0,2.677 -0.731,4.738 -2.193,6.187 -1.462,1.447 -3.518,2.171 -6.166,2.171 h -5.148 V 73.29 h 5.507 c 2.554,0 4.526,0.657 5.916,1.974 1.39,1.317 2.084,3.217 2.084,5.703 z m -4.462,0.153 c 0,-1.469 -0.289,-2.559 -0.866,-3.268 -0.577,-0.71 -1.453,-1.064 -2.628,-1.064 h -1.251 v 8.982 h 0.958 c 1.306,0 2.264,-0.382 2.874,-1.146 0.608,-0.764 0.913,-1.932 0.913,-3.504 z"
   id="path2834" />

		<path
   fill="#4e4e4e"
   d="m 123.129,89.544 c -2.053,0 -3.646,-0.55 -4.783,-1.65 -1.136,-1.101 -1.704,-2.667 -1.704,-4.7 0,-2.099 0.526,-3.709 1.578,-4.831 1.053,-1.122 2.555,-1.684 4.506,-1.684 1.857,0 3.293,0.488 4.305,1.464 1.012,0.977 1.52,2.382 1.52,4.218 v 1.908 h -7.609 c 0.029,0.694 0.281,1.239 0.758,1.634 0.475,0.396 1.121,0.593 1.941,0.593 0.748,0 1.436,-0.071 2.063,-0.214 0.629,-0.143 1.309,-0.386 2.041,-0.729 v 3.082 c -0.668,0.344 -1.357,0.581 -2.068,0.713 -0.712,0.13 -1.56,0.196 -2.548,0.196 z m -0.25,-9.948 c -0.5,0 -0.92,0.159 -1.256,0.478 -0.338,0.318 -0.537,0.817 -0.594,1.497 h 3.656 c -0.014,-0.6 -0.184,-1.078 -0.506,-1.437 -0.322,-0.359 -0.755,-0.538 -1.3,-0.538 z"
   id="path2836" />

		<path
   fill="#4e4e4e"
   d="m 132.851,89.324 -4.702,-12.426 h 4.44 l 2.09,7.348 c 0.008,0.037 0.022,0.099 0.044,0.187 0.022,0.088 0.043,0.192 0.065,0.313 0.021,0.121 0.041,0.249 0.06,0.384 0.018,0.136 0.027,0.262 0.027,0.379 h 0.076 c 0,-0.38 0.065,-0.793 0.195,-1.239 l 2.188,-7.37 h 4.43 l -4.702,12.426 h -4.211 z"
   id="path2838" />

		<path
   fill="#4e4e4e"
   d="m 146.381,89.324 h -4.234 V 73.29 h 9.404 v 3.477 h -5.17 v 3.06 h 4.767 v 3.477 h -4.767 z"
   id="path2840" />

		<path
   fill="#4e4e4e"
   d="m 158.528,89.544 c -2.054,0 -3.647,-0.55 -4.783,-1.65 -1.136,-1.1 -1.703,-2.667 -1.703,-4.7 0,-2.099 0.525,-3.709 1.578,-4.831 1.052,-1.122 2.554,-1.684 4.506,-1.684 1.857,0 3.292,0.488 4.305,1.464 1.012,0.977 1.519,2.382 1.519,4.218 v 1.908 h -7.608 c 0.029,0.694 0.281,1.239 0.757,1.634 0.475,0.396 1.122,0.593 1.942,0.593 0.747,0 1.435,-0.071 2.063,-0.214 0.628,-0.143 1.308,-0.386 2.041,-0.729 v 3.082 c -0.668,0.344 -1.357,0.581 -2.068,0.713 -0.713,0.13 -1.561,0.196 -2.549,0.196 z m -0.25,-9.948 c -0.501,0 -0.92,0.159 -1.257,0.478 -0.338,0.318 -0.536,0.817 -0.594,1.497 h 3.657 c -0.015,-0.6 -0.184,-1.078 -0.506,-1.437 -0.322,-0.359 -0.756,-0.538 -1.3,-0.538 z"
   id="path2842" />

		<path
   fill="#4e4e4e"
   d="m 174.541,85.508 c 0,1.331 -0.45,2.336 -1.35,3.016 -0.9,0.681 -2.191,1.021 -3.875,1.021 -0.914,0 -1.709,-0.05 -2.384,-0.148 -0.675,-0.098 -1.364,-0.279 -2.067,-0.543 V 85.42 c 0.66,0.293 1.384,0.534 2.171,0.724 0.787,0.19 1.489,0.285 2.106,0.285 0.921,0 1.382,-0.212 1.382,-0.636 0,-0.22 -0.129,-0.415 -0.386,-0.587 -0.258,-0.172 -1.007,-0.506 -2.248,-1.004 -1.132,-0.468 -1.923,-0.999 -2.373,-1.596 -0.449,-0.596 -0.675,-1.351 -0.675,-2.265 0,-1.155 0.442,-2.055 1.328,-2.698 0.885,-0.644 2.137,-0.965 3.755,-0.965 0.813,0 1.576,0.09 2.291,0.269 0.715,0.18 1.457,0.44 2.227,0.784 l -1.154,2.764 c -0.565,-0.256 -1.164,-0.473 -1.796,-0.652 -0.631,-0.179 -1.146,-0.269 -1.546,-0.269 -0.696,0 -1.044,0.172 -1.044,0.516 0,0.212 0.121,0.393 0.364,0.543 0.243,0.149 0.945,0.455 2.106,0.915 0.863,0.358 1.507,0.71 1.932,1.054 0.425,0.344 0.736,0.747 0.936,1.212 0.2,0.463 0.3,1.029 0.3,1.694 z"
   id="path2844" />

		<path
   fill="#4e4e4e"
   d="m 181.605,86.154 c 0.573,0 1.259,-0.143 2.058,-0.428 v 3.126 c -0.573,0.249 -1.119,0.427 -1.639,0.532 -0.519,0.105 -1.126,0.159 -1.822,0.159 -1.43,0 -2.46,-0.353 -3.092,-1.059 -0.631,-0.705 -0.946,-1.789 -0.946,-3.252 V 80.11 h -1.491 v -1.743 l 1.894,-1.35 1.1,-2.61 h 2.786 v 2.49 h 3.025 v 3.213 h -3.025 v 4.837 c -0.001,0.806 0.384,1.207 1.152,1.207 z"
   id="path2846" />

	</g>

	<g
   id="g2870">
		<path
   fill="#4e4e4e"
   d="M 60.282,110.886 H 50.031 v -1.841 l 3.9,-3.921 c 1.151,-1.18 1.915,-2.016 2.291,-2.509 0.376,-0.493 0.65,-0.957 0.822,-1.392 0.172,-0.434 0.259,-0.899 0.259,-1.396 0,-0.683 -0.205,-1.221 -0.616,-1.613 -0.41,-0.394 -0.978,-0.59 -1.702,-0.59 -0.579,0 -1.14,0.107 -1.681,0.321 -0.542,0.214 -1.167,0.6 -1.877,1.158 L 50.114,97.5 c 0.841,-0.71 1.659,-1.214 2.452,-1.51 0.793,-0.297 1.638,-0.445 2.535,-0.445 1.407,0 2.534,0.367 3.382,1.102 0.848,0.735 1.272,1.723 1.272,2.964 0,0.683 -0.123,1.331 -0.367,1.944 -0.245,0.614 -0.621,1.247 -1.127,1.898 -0.506,0.651 -1.35,1.533 -2.529,2.644 l -2.627,2.544 v 0.104 h 7.179 v 2.141 z"
   id="path2850" />

		<path
   fill="#4e4e4e"
   d="m 71.104,103.324 c 0,2.627 -0.422,4.579 -1.267,5.854 -0.845,1.276 -2.136,1.914 -3.874,1.914 -1.683,0 -2.958,-0.658 -3.827,-1.976 -0.869,-1.317 -1.304,-3.248 -1.304,-5.793 0,-2.669 0.422,-4.636 1.268,-5.901 0.844,-1.266 2.132,-1.898 3.863,-1.898 1.689,0 2.969,0.662 3.838,1.986 0.869,1.324 1.303,3.262 1.303,5.814 z m -7.811,0 c 0,2.062 0.212,3.534 0.636,4.417 0.424,0.883 1.102,1.324 2.033,1.324 0.931,0 1.612,-0.448 2.043,-1.345 0.431,-0.896 0.646,-2.362 0.646,-4.396 0,-2.027 -0.215,-3.495 -0.646,-4.401 -0.431,-0.907 -1.112,-1.36 -2.043,-1.36 -0.931,0 -1.608,0.444 -2.033,1.334 -0.423,0.889 -0.636,2.365 -0.636,4.427 z"
   id="path2852" />

		<path
   fill="#4e4e4e"
   d="m 90.885061,48.049581 h -2.431 v -9.766 c 0,-1.165 0.027,-2.089 0.083,-2.771 -0.159,0.165 -0.354,0.348 -0.584,0.548 -0.231,0.2 -1.005,0.835 -2.323,1.903 l -1.22,-1.541 4.448,-3.497 h 2.028 v 15.124 z"
   id="path2854" />

		
		<path
   fill="#4e4e4e"
   d="m 107.335,106.779 c 0,1.345 -0.486,2.399 -1.458,3.165 -0.973,0.766 -2.314,1.148 -4.024,1.148 -1.71,0 -3.11,-0.266 -4.2,-0.797 v -2.338 c 0.689,0.324 1.422,0.579 2.198,0.766 0.776,0.187 1.499,0.279 2.167,0.279 0.979,0 1.702,-0.187 2.167,-0.559 0.465,-0.372 0.698,-0.872 0.698,-1.5 0,-0.565 -0.214,-1.045 -0.641,-1.438 -0.428,-0.394 -1.311,-0.858 -2.648,-1.396 -1.379,-0.559 -2.352,-1.196 -2.917,-1.914 -0.565,-0.717 -0.848,-1.579 -0.848,-2.586 0,-1.262 0.448,-2.255 1.345,-2.979 0.896,-0.724 2.1,-1.086 3.61,-1.086 1.448,0 2.89,0.317 4.324,0.952 l -0.786,2.017 c -1.345,-0.565 -2.545,-0.848 -3.6,-0.848 -0.8,0 -1.407,0.174 -1.82,0.521 -0.414,0.349 -0.621,0.81 -0.621,1.382 0,0.393 0.083,0.729 0.248,1.008 0.165,0.279 0.438,0.543 0.817,0.792 0.379,0.248 1.062,0.575 2.048,0.982 1.11,0.462 1.924,0.894 2.441,1.293 0.517,0.4 0.896,0.852 1.138,1.355 0.241,0.505 0.362,1.099 0.362,1.781 z"
   id="path2858" />

		<path
   fill="#4e4e4e"
   d="m 113.729,111.093 c -1.779,0 -3.171,-0.519 -4.174,-1.557 -1.003,-1.038 -1.505,-2.468 -1.505,-4.288 0,-1.869 0.465,-3.338 1.396,-4.407 0.931,-1.068 2.21,-1.603 3.838,-1.603 1.51,0 2.703,0.458 3.579,1.375 0.875,0.918 1.313,2.18 1.313,3.786 v 1.314 h -7.624 c 0.034,1.11 0.334,1.964 0.9,2.56 0.565,0.597 1.362,0.896 2.39,0.896 0.676,0 1.305,-0.064 1.888,-0.191 0.583,-0.128 1.208,-0.34 1.877,-0.637 v 1.976 c -0.593,0.283 -1.193,0.483 -1.8,0.601 -0.607,0.118 -1.298,0.175 -2.078,0.175 z m -0.444,-10.014 c -0.772,0 -1.392,0.245 -1.857,0.734 -0.465,0.49 -0.743,1.204 -0.833,2.142 h 5.193 c -0.014,-0.945 -0.242,-1.66 -0.683,-2.146 -0.441,-0.486 -1.048,-0.73 -1.82,-0.73 z"
   id="path2860" />

		<path
   fill="#4e4e4e"
   d="m 126.826,110.886 -0.486,-1.593 h -0.082 c -0.553,0.696 -1.107,1.171 -1.666,1.422 -0.559,0.252 -1.275,0.378 -2.152,0.378 -1.123,0 -2,-0.304 -2.631,-0.91 -0.633,-0.607 -0.947,-1.466 -0.947,-2.576 0,-1.179 0.438,-2.068 1.314,-2.669 0.875,-0.6 2.209,-0.928 4.002,-0.982 l 1.977,-0.063 v -0.61 c 0,-0.73 -0.172,-1.277 -0.512,-1.64 -0.342,-0.361 -0.871,-0.543 -1.588,-0.543 -0.586,0 -1.148,0.087 -1.688,0.259 -0.537,0.173 -1.055,0.376 -1.551,0.61 l -0.787,-1.737 c 0.621,-0.324 1.301,-0.571 2.039,-0.74 0.738,-0.169 1.434,-0.253 2.09,-0.253 1.455,0 2.553,0.317 3.295,0.951 0.74,0.635 1.111,1.631 1.111,2.989 v 7.707 z m -3.621,-1.656 c 0.883,0 1.592,-0.246 2.127,-0.739 0.533,-0.493 0.801,-1.185 0.801,-2.074 v -0.993 l -1.469,0.063 c -1.145,0.041 -1.977,0.232 -2.498,0.574 -0.521,0.341 -0.781,0.863 -0.781,1.566 0,0.511 0.152,0.905 0.455,1.185 0.305,0.279 0.76,0.418 1.365,0.418 z"
   id="path2862" />

		<path
   fill="#4e4e4e"
   d="m 138.372,107.627 c 0,1.117 -0.407,1.975 -1.221,2.571 -0.813,0.596 -1.979,0.895 -3.496,0.895 -1.524,0 -2.749,-0.231 -3.673,-0.693 v -2.1 c 1.345,0.62 2.597,0.931 3.755,0.931 1.497,0 2.245,-0.451 2.245,-1.354 0,-0.29 -0.083,-0.531 -0.248,-0.725 -0.166,-0.193 -0.438,-0.393 -0.817,-0.6 -0.379,-0.207 -0.907,-0.441 -1.583,-0.704 -1.317,-0.51 -2.208,-1.021 -2.674,-1.53 -0.466,-0.511 -0.698,-1.173 -0.698,-1.986 0,-0.979 0.395,-1.739 1.185,-2.281 0.789,-0.541 1.863,-0.812 3.223,-0.812 1.345,0 2.617,0.272 3.816,0.816 l -0.786,1.831 c -1.234,-0.51 -2.272,-0.766 -3.113,-0.766 -1.283,0 -1.924,0.366 -1.924,1.097 0,0.359 0.167,0.662 0.501,0.91 0.335,0.249 1.064,0.59 2.188,1.024 0.944,0.366 1.631,0.7 2.059,1.004 0.427,0.303 0.744,0.653 0.951,1.05 0.207,0.397 0.31,0.87 0.31,1.422 z"
   id="path2864" />

		<path
   fill="#4e4e4e"
   d="m 149.876,105.145 c 0,1.869 -0.479,3.327 -1.438,4.376 -0.959,1.048 -2.293,1.572 -4.004,1.572 -1.068,0 -2.014,-0.241 -2.834,-0.725 -0.821,-0.482 -1.452,-1.176 -1.894,-2.079 -0.442,-0.903 -0.662,-1.951 -0.662,-3.145 0,-1.855 0.477,-3.303 1.428,-4.345 0.952,-1.041 2.293,-1.562 4.024,-1.562 1.655,0 2.965,0.532 3.931,1.598 0.966,1.066 1.449,2.503 1.449,4.31 z m -8.327,0 c 0,2.642 0.976,3.962 2.928,3.962 1.931,0 2.896,-1.32 2.896,-3.962 0,-2.613 -0.973,-3.921 -2.918,-3.921 -1.021,0 -1.76,0.339 -2.219,1.015 -0.458,0.675 -0.687,1.644 -0.687,2.906 z"
   id="path2866" />

		<path
   fill="#4e4e4e"
   d="m 161.463,110.886 h -2.441 v -7.034 c 0,-0.883 -0.178,-1.541 -0.532,-1.976 -0.355,-0.435 -0.919,-0.652 -1.691,-0.652 -1.027,0 -1.779,0.304 -2.255,0.911 -0.477,0.606 -0.714,1.624 -0.714,3.051 v 5.7 h -2.431 V 99.444 h 1.903 l 0.341,1.5 h 0.124 c 0.345,-0.544 0.835,-0.965 1.469,-1.262 0.635,-0.296 1.338,-0.444 2.11,-0.444 2.745,0 4.117,1.396 4.117,4.189 z"
   id="path2868" />

	<path
   fill="#4e4e4e"
   d="m 90.812,110.886 h -2.431 v -9.766 c 0,-1.165 0.027,-2.089 0.083,-2.771 -0.159,0.165 -0.354,0.348 -0.584,0.548 -0.231,0.2 -1.005,0.835 -2.323,1.903 l -1.22,-1.541 4.448,-3.497 h 2.028 v 15.124 z"
   id="path3360" />
<path
   fill="#4e4e4e"
   d="M 82.282,110.886 H 72.031 v -1.841 l 3.9,-3.921 c 1.151,-1.18 1.915,-2.016 2.291,-2.509 0.376,-0.493 0.65,-0.957 0.822,-1.392 0.172,-0.434 0.259,-0.899 0.259,-1.396 0,-0.683 -0.205,-1.221 -0.616,-1.613 -0.41,-0.394 -0.978,-0.59 -1.702,-0.59 -0.579,0 -1.14,0.107 -1.681,0.321 -0.542,0.214 -1.167,0.6 -1.877,1.158 L 72.114,97.5 c 0.841,-0.71 1.659,-1.214 2.452,-1.51 0.793,-0.297 1.638,-0.445 2.535,-0.445 1.407,0 2.534,0.367 3.382,1.102 0.848,0.735 1.272,1.723 1.272,2.964 0,0.683 -0.123,1.331 -0.367,1.944 -0.245,0.614 -0.621,1.247 -1.127,1.898 -0.506,0.651 -1.35,1.533 -2.529,2.644 l -2.627,2.544 v 0.104 h 7.179 v 2.141 z"
   id="path3362" />
</g>

	<g
   id="g2878">
		<path
   fill="#4e4e4e"
   d="m 55.571,80.313 h 6.922 v 8.644 c -1.879,0.644 -3.945,0.966 -6.198,0.966 -2.472,0 -4.382,-0.717 -5.731,-2.15 -1.349,-1.433 -2.024,-3.477 -2.024,-6.132 0,-2.589 0.739,-4.603 2.216,-6.044 1.477,-1.44 3.547,-2.161 6.208,-2.161 1.009,0 1.962,0.096 2.858,0.285 0.896,0.19 1.676,0.432 2.342,0.725 l -1.371,3.4 c -1.156,-0.57 -2.424,-0.855 -3.807,-0.855 -1.265,0 -2.243,0.411 -2.934,1.233 -0.691,0.823 -1.037,1.999 -1.037,3.527 0,1.499 0.313,2.642 0.938,3.428 0.625,0.786 1.526,1.179 2.704,1.179 0.644,0 1.236,-0.062 1.777,-0.187 v -2.512 h -2.863 z"
   id="path2872" />

		<path
   fill="#4e4e4e"
   d="m 78.026,81.344 c 0,2.677 -0.737,4.739 -2.21,6.187 -1.474,1.448 -3.545,2.172 -6.214,2.172 H 64.414 V 73.665 h 5.551 c 2.574,0 4.561,0.658 5.961,1.975 1.4,1.317 2.1,3.217 2.1,5.704 z m -4.497,0.153 c 0,-1.47 -0.291,-2.56 -0.872,-3.269 -0.581,-0.709 -1.464,-1.063 -2.649,-1.063 h -1.262 v 8.983 h 0.965 c 1.316,0 2.282,-0.382 2.896,-1.146 0.615,-0.764 0.922,-1.933 0.922,-3.505 z"
   id="path2874" />

		<path
   fill="#4e4e4e"
   d="m 85.991,80.313 h 6.922 v 8.644 c -1.879,0.644 -3.945,0.966 -6.198,0.966 -2.472,0 -4.382,-0.717 -5.731,-2.15 -1.349,-1.433 -2.024,-3.477 -2.024,-6.132 0,-2.589 0.739,-4.603 2.216,-6.044 1.477,-1.44 3.547,-2.161 6.208,-2.161 1.009,0 1.962,0.096 2.858,0.285 0.896,0.19 1.676,0.432 2.342,0.725 l -1.371,3.4 c -1.156,-0.57 -2.424,-0.855 -3.807,-0.855 -1.265,0 -2.243,0.411 -2.934,1.233 -0.691,0.823 -1.037,1.999 -1.037,3.527 0,1.499 0.313,2.642 0.938,3.428 0.625,0.786 1.526,1.179 2.704,1.179 0.644,0 1.236,-0.062 1.777,-0.187 v -2.512 h -2.863 z"
   id="path2876" />

	</g>

	
		<radialGradient
   id="SVGID_5_"
   cx="-310.58301"
   cy="66.4552"
   r="20.113701"
   gradientTransform="matrix(0.498,0,0,0.498,172.2891,79.7388)"
   gradientUnits="userSpaceOnUse">
		<stop
   offset="0"
   style="stop-color:#CCCCCC"
   id="stop2880" />

		<stop
   offset="1"
   style="stop-color:#C0C0C0"
   id="stop2882" />

	</radialGradient>

	<path
   fill="url(#SVGID_5_)"
   d="m 8.91,124 h 6.791 c 1.607,0 3.604,-1.128 4.432,-2.511 l 5.72,-9.519 c 0.677,-1.396 0.653,-3.426 -0.119,-4.713 l -3.378,-5.592 z"
   id="path2885"
   style="fill:url(#SVGID_5_)" />

	
		<radialGradient
   id="SVGID_6_"
   cx="-322.6347"
   cy="56.2407"
   r="27.658199"
   gradientTransform="matrix(0.498,0,0,0.498,172.2891,79.7388)"
   gradientUnits="userSpaceOnUse">
		<stop
   offset="0"
   style="stop-color:#A0A0A0"
   id="stop2887" />

		<stop
   offset="1"
   style="stop-color:#7B7B7B"
   id="stop2889" />

	</radialGradient>

	<path
   fill="url(#SVGID_6_)"
   d="M 16.209,96.514 1.108,121.763 C 0.524,123.011 1.131,124 2.629,124 H 8.91 L 22.356,101.665 16.21,91.492 c 0.829,1.378 0.829,3.638 -0.001,5.022"
   id="path2892"
   style="fill:url(#SVGID_6_)" />

	
		<radialGradient
   id="SVGID_7_"
   cx="-313.18311"
   cy="16.559"
   r="40.540001"
   gradientTransform="matrix(0.498,0,0,0.498,172.2891,79.7388)"
   gradientUnits="userSpaceOnUse">
		<stop
   offset="0"
   style="stop-color:#848484"
   id="stop2894" />

		<stop
   offset="1"
   style="stop-color:#838383"
   id="stop2896" />

	</radialGradient>

	<path
   fill="url(#SVGID_7_)"
   d="m 2.629,64 c -1.613,0 -2.254,1.133 -1.424,2.511 l 24.529,40.745 c 0.772,1.288 0.795,3.317 0.119,4.713 L 31.816,102.044 8.914,64 Z"
   id="path2899"
   style="fill:url(#SVGID_7_)" />

	
		<radialGradient
   id="SVGID_8_"
   cx="-301.11911"
   cy="6.5938001"
   r="33.058399"
   gradientTransform="matrix(0.498,0,0,0.498,172.2891,79.7388)"
   gradientUnits="userSpaceOnUse">
		<stop
   offset="0"
   style="stop-color:#626262"
   id="stop2901" />

		<stop
   offset="1"
   style="stop-color:#474747"
   id="stop2903" />

	</radialGradient>

	<path
   fill="url(#SVGID_8_)"
   d="m 8.914,64 22.903,38.045 3.321,-5.53 c 0.83,-1.385 0.83,-3.645 0,-5.023 L 20.134,66.512 C 19.305,65.133 17.308,64 15.701,64 Z"
   id="path2906"
   style="fill:url(#SVGID_8_)" />

</g>
    <g
       id="g2984"
       transform="matrix(0.26458333,0,0,0.26458333,0.52584755,0.06529255)">
	<g
   id="g2924">
		<path
   fill="#e6e6e5"
   d="m 116.071,143.967 c 0,2.676 -0.731,4.738 -2.193,6.186 -1.462,1.448 -3.518,2.172 -6.166,2.172 h -5.148 V 136.29 h 5.507 c 2.554,0 4.526,0.658 5.916,1.975 1.39,1.317 2.084,3.215 2.084,5.702 z m -4.463,0.153 c 0,-1.47 -0.289,-2.559 -0.866,-3.269 -0.577,-0.709 -1.453,-1.063 -2.628,-1.063 h -1.251 v 8.982 h 0.958 c 1.306,0 2.264,-0.382 2.874,-1.146 0.608,-0.764 0.913,-1.932 0.913,-3.504 z"
   id="path2910" />

		<path
   fill="#e6e6e5"
   d="m 123.287,152.544 c -2.053,0 -3.646,-0.551 -4.782,-1.651 -1.136,-1.1 -1.704,-2.667 -1.704,-4.699 0,-2.099 0.526,-3.709 1.578,-4.831 1.052,-1.123 2.554,-1.684 4.505,-1.684 1.857,0 3.293,0.487 4.305,1.464 1.012,0.977 1.52,2.382 1.52,4.217 v 1.909 H 121.1 c 0.029,0.694 0.281,1.239 0.758,1.634 0.475,0.395 1.121,0.592 1.941,0.592 0.748,0 1.436,-0.071 2.063,-0.214 0.629,-0.143 1.309,-0.385 2.041,-0.729 v 3.081 c -0.668,0.344 -1.357,0.582 -2.068,0.713 -0.712,0.132 -1.56,0.198 -2.548,0.198 z m -0.25,-9.948 c -0.5,0 -0.92,0.159 -1.256,0.478 -0.338,0.317 -0.537,0.816 -0.594,1.497 h 3.656 c -0.014,-0.6 -0.184,-1.079 -0.506,-1.438 -0.321,-0.358 -0.755,-0.537 -1.3,-0.537 z"
   id="path2912" />

		<path
   fill="#e6e6e5"
   d="m 133.009,152.324 -4.702,-12.427 h 4.44 l 2.09,7.349 c 0.008,0.037 0.022,0.099 0.044,0.187 0.022,0.088 0.043,0.192 0.065,0.313 0.021,0.121 0.041,0.249 0.06,0.384 0.018,0.136 0.027,0.262 0.027,0.379 h 0.076 c 0,-0.381 0.065,-0.794 0.195,-1.239 l 2.188,-7.371 h 4.43 l -4.702,12.427 h -4.211 z"
   id="path2914" />

		<path
   fill="#e6e6e5"
   d="m 146.539,152.324 h -4.234 v -16.035 h 9.404 v 3.478 h -5.17 v 3.06 h 4.767 v 3.477 h -4.767 z"
   id="path2916" />

		<path
   fill="#e6e6e5"
   d="m 158.687,152.544 c -2.054,0 -3.647,-0.551 -4.783,-1.651 -1.136,-1.1 -1.703,-2.667 -1.703,-4.699 0,-2.099 0.525,-3.709 1.578,-4.831 1.052,-1.123 2.554,-1.684 4.506,-1.684 1.857,0 3.292,0.487 4.305,1.464 1.012,0.977 1.519,2.382 1.519,4.217 v 1.909 h -7.608 c 0.029,0.694 0.281,1.239 0.757,1.634 0.475,0.395 1.122,0.592 1.942,0.592 0.747,0 1.435,-0.071 2.063,-0.214 0.628,-0.143 1.308,-0.385 2.041,-0.729 v 3.081 c -0.668,0.344 -1.357,0.582 -2.068,0.713 -0.714,0.132 -1.562,0.198 -2.549,0.198 z m -0.25,-9.948 c -0.501,0 -0.92,0.159 -1.257,0.478 -0.338,0.317 -0.536,0.816 -0.594,1.497 h 3.657 c -0.015,-0.6 -0.184,-1.079 -0.506,-1.438 -0.323,-0.358 -0.757,-0.537 -1.3,-0.537 z"
   id="path2918" />

		<path
   fill="#e6e6e5"
   d="m 174.699,148.508 c 0,1.33 -0.45,2.336 -1.35,3.016 -0.9,0.68 -2.191,1.021 -3.875,1.021 -0.914,0 -1.709,-0.05 -2.384,-0.148 -0.675,-0.098 -1.364,-0.279 -2.067,-0.543 v -3.433 c 0.66,0.292 1.384,0.533 2.171,0.724 0.787,0.191 1.489,0.285 2.106,0.285 0.921,0 1.382,-0.212 1.382,-0.636 0,-0.22 -0.129,-0.415 -0.386,-0.587 -0.258,-0.172 -1.007,-0.507 -2.248,-1.004 -1.132,-0.468 -1.923,-1 -2.373,-1.596 -0.449,-0.596 -0.675,-1.351 -0.675,-2.265 0,-1.155 0.442,-2.055 1.328,-2.698 0.885,-0.644 2.137,-0.965 3.755,-0.965 0.813,0 1.576,0.089 2.291,0.269 0.715,0.179 1.457,0.44 2.227,0.784 l -1.154,2.764 c -0.565,-0.256 -1.164,-0.474 -1.796,-0.652 -0.631,-0.18 -1.146,-0.269 -1.546,-0.269 -0.696,0 -1.044,0.172 -1.044,0.516 0,0.212 0.121,0.393 0.364,0.542 0.243,0.15 0.945,0.456 2.106,0.916 0.863,0.358 1.507,0.71 1.932,1.053 0.425,0.344 0.736,0.748 0.936,1.212 0.201,0.463 0.3,1.028 0.3,1.694 z"
   id="path2920" />

		<path
   fill="#e6e6e5"
   d="m 181.764,149.154 c 0.573,0 1.259,-0.143 2.058,-0.428 v 3.126 c -0.573,0.249 -1.119,0.426 -1.639,0.532 -0.519,0.105 -1.126,0.159 -1.822,0.159 -1.43,0 -2.46,-0.354 -3.092,-1.059 -0.631,-0.706 -0.946,-1.79 -0.946,-3.252 v -5.122 h -1.491 v -1.744 l 1.894,-1.349 1.1,-2.61 h 2.786 v 2.489 h 3.025 v 3.214 h -3.025 v 4.837 c -0.002,0.806 0.383,1.207 1.152,1.207 z"
   id="path2922" />

	</g>

	<g
   id="g2946">
		<path
   fill="#e6e6e5"
   d="M 60.441,173.886 H 50.19 v -1.841 l 3.9,-3.921 c 1.151,-1.18 1.915,-2.016 2.291,-2.509 0.376,-0.493 0.65,-0.957 0.822,-1.392 0.172,-0.434 0.259,-0.899 0.259,-1.396 0,-0.683 -0.205,-1.221 -0.616,-1.613 -0.41,-0.394 -0.978,-0.59 -1.702,-0.59 -0.579,0 -1.14,0.107 -1.681,0.321 -0.542,0.214 -1.167,0.6 -1.877,1.158 l -1.314,-1.604 c 0.841,-0.71 1.659,-1.214 2.452,-1.51 0.793,-0.297 1.638,-0.445 2.535,-0.445 1.407,0 2.534,0.367 3.382,1.102 0.848,0.735 1.272,1.723 1.272,2.964 0,0.683 -0.123,1.331 -0.367,1.944 -0.245,0.614 -0.621,1.247 -1.127,1.898 -0.506,0.651 -1.35,1.533 -2.529,2.644 l -2.627,2.544 v 0.104 h 7.179 v 2.142 z"
   id="path2926" />

		<path
   fill="#e6e6e5"
   d="m 71.262,166.324 c 0,2.627 -0.422,4.579 -1.267,5.854 -0.845,1.276 -2.136,1.914 -3.874,1.914 -1.683,0 -2.958,-0.658 -3.827,-1.976 -0.869,-1.317 -1.304,-3.248 -1.304,-5.793 0,-2.669 0.422,-4.636 1.268,-5.901 0.844,-1.266 2.132,-1.898 3.863,-1.898 1.689,0 2.969,0.662 3.838,1.986 0.869,1.324 1.303,3.262 1.303,5.814 z m -7.81,0 c 0,2.062 0.212,3.534 0.636,4.417 0.424,0.883 1.102,1.324 2.033,1.324 0.931,0 1.612,-0.448 2.043,-1.345 0.431,-0.896 0.646,-2.362 0.646,-4.396 0,-2.027 -0.215,-3.495 -0.646,-4.401 -0.431,-0.907 -1.112,-1.36 -2.043,-1.36 -0.931,0 -1.608,0.444 -2.033,1.334 -0.423,0.889 -0.636,2.365 -0.636,4.427 z"
   id="path2928" />

		
		
		<path
   fill="#e6e6e5"
   d="m 107.494,169.779 c 0,1.345 -0.486,2.399 -1.458,3.165 -0.973,0.766 -2.314,1.148 -4.024,1.148 -1.71,0 -3.11,-0.266 -4.2,-0.797 v -2.338 c 0.689,0.324 1.422,0.579 2.198,0.766 0.776,0.187 1.499,0.279 2.167,0.279 0.979,0 1.702,-0.187 2.167,-0.559 0.465,-0.372 0.698,-0.872 0.698,-1.5 0,-0.565 -0.214,-1.045 -0.641,-1.438 -0.428,-0.394 -1.311,-0.858 -2.648,-1.396 -1.379,-0.559 -2.352,-1.196 -2.917,-1.914 -0.565,-0.717 -0.848,-1.579 -0.848,-2.586 0,-1.262 0.448,-2.255 1.345,-2.979 0.896,-0.724 2.1,-1.086 3.61,-1.086 1.448,0 2.89,0.317 4.324,0.952 l -0.786,2.017 c -1.345,-0.565 -2.545,-0.848 -3.6,-0.848 -0.8,0 -1.407,0.174 -1.82,0.521 -0.414,0.349 -0.621,0.81 -0.621,1.382 0,0.393 0.083,0.729 0.248,1.008 0.165,0.279 0.438,0.543 0.817,0.792 0.379,0.248 1.062,0.575 2.048,0.982 1.11,0.462 1.924,0.894 2.441,1.293 0.517,0.4 0.896,0.852 1.138,1.355 0.241,0.505 0.362,1.099 0.362,1.781 z"
   id="path2934" />

		<path
   fill="#e6e6e5"
   d="m 113.888,174.093 c -1.779,0 -3.171,-0.519 -4.174,-1.557 -1.003,-1.038 -1.505,-2.468 -1.505,-4.288 0,-1.869 0.465,-3.338 1.396,-4.407 0.931,-1.068 2.21,-1.603 3.838,-1.603 1.51,0 2.703,0.458 3.579,1.375 0.875,0.918 1.313,2.18 1.313,3.786 v 1.314 h -7.624 c 0.034,1.11 0.334,1.964 0.9,2.56 0.565,0.597 1.362,0.896 2.39,0.896 0.676,0 1.305,-0.064 1.888,-0.191 0.583,-0.128 1.208,-0.34 1.877,-0.637 v 1.976 c -0.593,0.283 -1.193,0.483 -1.8,0.601 -0.607,0.118 -1.299,0.175 -2.078,0.175 z m -0.445,-10.014 c -0.772,0 -1.392,0.245 -1.857,0.734 -0.465,0.49 -0.743,1.204 -0.833,2.142 h 5.193 c -0.014,-0.945 -0.242,-1.66 -0.683,-2.146 -0.441,-0.486 -1.048,-0.73 -1.82,-0.73 z"
   id="path2936" />

		<path
   fill="#e6e6e5"
   d="m 126.984,173.886 -0.486,-1.593 h -0.082 c -0.553,0.696 -1.107,1.171 -1.666,1.422 -0.559,0.252 -1.275,0.378 -2.152,0.378 -1.123,0 -2,-0.304 -2.631,-0.91 -0.633,-0.607 -0.947,-1.466 -0.947,-2.576 0,-1.179 0.438,-2.068 1.314,-2.669 0.875,-0.6 2.209,-0.928 4.002,-0.982 l 1.977,-0.063 v -0.61 c 0,-0.73 -0.172,-1.277 -0.512,-1.64 -0.342,-0.361 -0.871,-0.543 -1.588,-0.543 -0.586,0 -1.148,0.087 -1.688,0.259 -0.537,0.173 -1.055,0.376 -1.551,0.61 l -0.787,-1.737 c 0.621,-0.324 1.301,-0.571 2.039,-0.74 0.738,-0.169 1.434,-0.253 2.09,-0.253 1.455,0 2.553,0.317 3.295,0.951 0.74,0.635 1.111,1.631 1.111,2.989 v 7.707 z m -3.621,-1.656 c 0.883,0 1.592,-0.246 2.127,-0.739 0.533,-0.493 0.801,-1.185 0.801,-2.074 v -0.993 l -1.469,0.063 c -1.145,0.041 -1.977,0.232 -2.498,0.574 -0.521,0.341 -0.781,0.863 -0.781,1.566 0,0.511 0.152,0.905 0.455,1.185 0.305,0.279 0.76,0.418 1.365,0.418 z"
   id="path2938" />

		<path
   fill="#e6e6e5"
   d="m 138.53,170.627 c 0,1.117 -0.407,1.975 -1.221,2.571 -0.813,0.596 -1.979,0.895 -3.496,0.895 -1.524,0 -2.749,-0.231 -3.673,-0.693 v -2.1 c 1.345,0.62 2.597,0.931 3.755,0.931 1.497,0 2.245,-0.451 2.245,-1.354 0,-0.29 -0.083,-0.531 -0.248,-0.725 -0.166,-0.193 -0.438,-0.393 -0.817,-0.6 -0.379,-0.207 -0.907,-0.441 -1.583,-0.704 -1.317,-0.51 -2.208,-1.021 -2.674,-1.53 -0.466,-0.511 -0.698,-1.173 -0.698,-1.986 0,-0.979 0.395,-1.739 1.185,-2.281 0.789,-0.541 1.863,-0.812 3.223,-0.812 1.345,0 2.617,0.272 3.816,0.816 l -0.786,1.831 c -1.234,-0.51 -2.272,-0.766 -3.113,-0.766 -1.283,0 -1.924,0.366 -1.924,1.097 0,0.359 0.167,0.662 0.501,0.91 0.335,0.249 1.064,0.59 2.188,1.024 0.944,0.366 1.631,0.7 2.059,1.004 0.427,0.303 0.744,0.653 0.951,1.05 0.207,0.397 0.31,0.87 0.31,1.422 z"
   id="path2940" />

		<path
   fill="#e6e6e5"
   d="m 150.034,168.145 c 0,1.869 -0.479,3.327 -1.438,4.376 -0.959,1.048 -2.293,1.572 -4.004,1.572 -1.068,0 -2.014,-0.241 -2.834,-0.725 -0.821,-0.482 -1.452,-1.176 -1.894,-2.079 -0.442,-0.903 -0.662,-1.951 -0.662,-3.145 0,-1.855 0.477,-3.303 1.428,-4.345 0.952,-1.041 2.293,-1.562 4.024,-1.562 1.655,0 2.965,0.532 3.931,1.598 0.966,1.066 1.449,2.503 1.449,4.31 z m -8.327,0 c 0,2.642 0.976,3.962 2.928,3.962 1.931,0 2.896,-1.32 2.896,-3.962 0,-2.613 -0.973,-3.921 -2.918,-3.921 -1.021,0 -1.76,0.339 -2.219,1.015 -0.457,0.675 -0.687,1.644 -0.687,2.906 z"
   id="path2942" />

		<path
   fill="#e6e6e5"
   d="m 161.621,173.886 h -2.441 v -7.034 c 0,-0.883 -0.178,-1.541 -0.532,-1.976 -0.355,-0.435 -0.919,-0.652 -1.691,-0.652 -1.027,0 -1.779,0.304 -2.255,0.911 -0.477,0.606 -0.714,1.624 -0.714,3.051 v 5.7 h -2.431 v -11.441 h 1.903 l 0.341,1.5 h 0.124 c 0.345,-0.544 0.835,-0.965 1.469,-1.262 0.635,-0.296 1.338,-0.444 2.11,-0.444 2.745,0 4.117,1.396 4.117,4.189 z"
   id="path2944" />

	<path
   fill="#e6e6e5"
   d="M 90.971,173.886 H 88.54 v -9.766 c 0,-1.165 0.027,-2.089 0.083,-2.771 -0.159,0.165 -0.354,0.348 -0.584,0.548 -0.231,0.2 -1.005,0.835 -2.323,1.903 l -1.22,-1.541 4.448,-3.497 h 2.028 v 15.124 z"
   id="path3364" />
<path
   fill="#e6e6e5"
   d="M 82.441,173.886 H 72.19 v -1.841 l 3.9,-3.921 c 1.151,-1.18 1.915,-2.016 2.291,-2.509 0.376,-0.493 0.65,-0.957 0.822,-1.392 0.172,-0.434 0.259,-0.899 0.259,-1.396 0,-0.683 -0.205,-1.221 -0.616,-1.613 -0.41,-0.394 -0.978,-0.59 -1.702,-0.59 -0.579,0 -1.14,0.107 -1.681,0.321 -0.542,0.214 -1.167,0.6 -1.877,1.158 l -1.314,-1.604 c 0.841,-0.71 1.659,-1.214 2.452,-1.51 0.793,-0.297 1.638,-0.445 2.535,-0.445 1.407,0 2.534,0.367 3.382,1.102 0.848,0.735 1.272,1.723 1.272,2.964 0,0.683 -0.123,1.331 -0.367,1.944 -0.245,0.614 -0.621,1.247 -1.127,1.898 -0.506,0.651 -1.35,1.533 -2.529,2.644 l -2.627,2.544 v 0.104 h 7.179 v 2.142 z"
   id="path3366" />
</g>

	<g
   id="g2954">
		<path
   fill="#e6e6e5"
   d="m 55.729,143.313 h 6.922 v 8.644 c -1.879,0.644 -3.945,0.966 -6.198,0.966 -2.472,0 -4.382,-0.717 -5.731,-2.15 -1.349,-1.433 -2.024,-3.478 -2.024,-6.132 0,-2.589 0.739,-4.604 2.216,-6.044 1.477,-1.44 3.547,-2.161 6.208,-2.161 1.009,0 1.962,0.096 2.858,0.285 0.896,0.19 1.676,0.432 2.342,0.725 l -1.371,3.4 c -1.156,-0.57 -2.424,-0.855 -3.807,-0.855 -1.265,0 -2.243,0.411 -2.934,1.233 -0.691,0.823 -1.037,1.998 -1.037,3.526 0,1.5 0.313,2.643 0.938,3.429 0.625,0.786 1.526,1.179 2.704,1.179 0.644,0 1.236,-0.062 1.777,-0.187 v -2.512 h -2.863 z"
   id="path2948" />

		<path
   fill="#e6e6e5"
   d="m 78.185,144.345 c 0,2.677 -0.737,4.738 -2.21,6.187 -1.473,1.449 -3.545,2.172 -6.214,2.172 h -5.188 v -16.037 h 5.551 c 2.574,0 4.561,0.658 5.961,1.975 1.4,1.317 2.1,3.216 2.1,5.703 z m -4.497,0.153 c 0,-1.47 -0.291,-2.56 -0.872,-3.269 -0.581,-0.709 -1.464,-1.064 -2.649,-1.064 h -1.262 v 8.984 h 0.965 c 1.316,0 2.282,-0.383 2.896,-1.146 0.614,-0.765 0.922,-1.933 0.922,-3.505 z"
   id="path2950" />

		<path
   fill="#e6e6e5"
   d="m 86.15,143.313 h 6.922 v 8.644 c -1.879,0.644 -3.945,0.966 -6.198,0.966 -2.472,0 -4.382,-0.717 -5.731,-2.15 -1.349,-1.433 -2.024,-3.478 -2.024,-6.132 0,-2.589 0.739,-4.604 2.216,-6.044 1.477,-1.44 3.547,-2.161 6.208,-2.161 1.009,0 1.962,0.096 2.858,0.285 0.896,0.19 1.676,0.432 2.342,0.725 l -1.371,3.4 c -1.156,-0.57 -2.424,-0.855 -3.807,-0.855 -1.265,0 -2.243,0.411 -2.934,1.233 -0.691,0.823 -1.037,1.998 -1.037,3.526 0,1.5 0.313,2.643 0.938,3.429 0.625,0.786 1.526,1.179 2.704,1.179 0.644,0 1.236,-0.062 1.777,-0.187 v -2.512 H 86.15 Z"
   id="path2952" />

	</g>

	
		<radialGradient
   id="SVGID_9_"
   cx="-310.26501"
   cy="192.9653"
   r="20.113701"
   gradientTransform="matrix(0.498,0,0,0.498,172.2891,79.7388)"
   gradientUnits="userSpaceOnUse">
		<stop
   offset="0"
   style="stop-color:#FFCF4F"
   id="stop2956" />

		<stop
   offset="1"
   style="stop-color:#F4C236"
   id="stop2958" />

	</radialGradient>

	<path
   fill="url(#SVGID_9_)"
   d="m 9.068,187 h 6.791 c 1.607,0 3.604,-1.128 4.432,-2.511 l 5.72,-9.519 c 0.677,-1.396 0.653,-3.426 -0.119,-4.713 l -3.378,-5.592 z"
   id="path2961"
   style="fill:url(#SVGID_9_)" />

	
		<radialGradient
   id="SVGID_10_"
   cx="-322.31671"
   cy="182.75079"
   r="27.658199"
   gradientTransform="matrix(0.498,0,0,0.498,172.2891,79.7388)"
   gradientUnits="userSpaceOnUse">
		<stop
   offset="0"
   style="stop-color:#08A960"
   id="stop2963" />

		<stop
   offset="1"
   style="stop-color:#07914B"
   id="stop2965" />

	</radialGradient>

	<path
   fill="url(#SVGID_10_)"
   d="M 16.368,159.514 1.266,184.763 C 0.683,186.011 1.289,187 2.787,187 h 6.281 l 13.446,-22.335 -6.146,-10.173 c 0.829,1.378 0.829,3.638 0,5.022"
   id="path2968"
   style="fill:url(#SVGID_10_)" />

	
		<radialGradient
   id="SVGID_11_"
   cx="-312.86511"
   cy="143.06911"
   r="40.540001"
   gradientTransform="matrix(0.498,0,0,0.498,172.2891,79.7388)"
   gradientUnits="userSpaceOnUse">
		<stop
   offset="0"
   style="stop-color:#567FC0"
   id="stop2970" />

		<stop
   offset="1"
   style="stop-color:#557FC0"
   id="stop2972" />

	</radialGradient>

	<path
   fill="url(#SVGID_11_)"
   d="m 2.787,127 c -1.613,0 -2.254,1.133 -1.424,2.511 l 24.529,40.745 c 0.772,1.288 0.795,3.317 0.119,4.713 L 31.974,165.044 9.072,127 Z"
   id="path2975"
   style="fill:url(#SVGID_11_)" />

	
		<radialGradient
   id="SVGID_12_"
   cx="-300.80109"
   cy="133.1039"
   r="33.058399"
   gradientTransform="matrix(0.498,0,0,0.498,172.2891,79.7388)"
   gradientUnits="userSpaceOnUse">
		<stop
   offset="0"
   style="stop-color:#E14C40"
   id="stop2977" />

		<stop
   offset="1"
   style="stop-color:#CD392D"
   id="stop2979" />

	</radialGradient>

	<path
   fill="url(#SVGID_12_)"
   d="m 9.072,127 22.903,38.045 3.321,-5.53 c 0.83,-1.385 0.83,-3.645 0,-5.023 L 20.292,129.511 C 19.463,128.133 17.467,127 15.86,127 Z"
   id="path2982"
   style="fill:url(#SVGID_12_)" />

</g>
  </g>
  <g
     inkscape:groupmode="layer"
     id="layer2"
     inkscape:label="Capa 2" />
</svg>
